<mxfile host="app.diagrams.net" modified="2021-07-13T11:53:39.587Z" agent="5.0 (Macintosh; Intel Mac OS X 10_15_2) AppleWebKit/537.36 (KHTML, like Gecko) Chrome/91.0.4472.114 Safari/537.36" etag="dVjp1WTYctYFJig-Dyha" version="14.8.4" type="github">
  <diagram id="WIHYsPwIDPFChnjAI5Zb" name="Page-1">
    <mxGraphModel dx="946" dy="527" grid="1" gridSize="10" guides="1" tooltips="1" connect="1" arrows="1" fold="1" page="1" pageScale="1" pageWidth="1654" pageHeight="2336" math="0" shadow="0">
      <root>
        <mxCell id="0" />
        <mxCell id="1" parent="0" />
        <mxCell id="JCvSuk_qTI3pTjTJBhhC-9" style="edgeStyle=orthogonalEdgeStyle;rounded=0;orthogonalLoop=1;jettySize=auto;html=1;exitX=0.5;exitY=1;exitDx=0;exitDy=0;entryX=0.5;entryY=0;entryDx=0;entryDy=0;" parent="1" source="JCvSuk_qTI3pTjTJBhhC-2" target="JCvSuk_qTI3pTjTJBhhC-6" edge="1">
          <mxGeometry relative="1" as="geometry" />
        </mxCell>
        <mxCell id="JCvSuk_qTI3pTjTJBhhC-2" value="&lt;p class=&quot;p1&quot; style=&quot;margin: 0px ; font-stretch: normal ; font-size: 14px ; line-height: normal ; font-family: &amp;#34;helvetica neue&amp;#34; ; color: rgb(15 , 23 , 33)&quot;&gt;performConcurrentWorkOnRoot&lt;/p&gt;" style="rounded=0;whiteSpace=wrap;html=1;" parent="1" vertex="1">
          <mxGeometry x="732.5" y="120" width="230" height="60" as="geometry" />
        </mxCell>
        <mxCell id="JCvSuk_qTI3pTjTJBhhC-8" style="edgeStyle=orthogonalEdgeStyle;rounded=0;orthogonalLoop=1;jettySize=auto;html=1;exitX=0.5;exitY=1;exitDx=0;exitDy=0;" parent="1" source="JCvSuk_qTI3pTjTJBhhC-4" target="JCvSuk_qTI3pTjTJBhhC-5" edge="1">
          <mxGeometry relative="1" as="geometry" />
        </mxCell>
        <mxCell id="JCvSuk_qTI3pTjTJBhhC-4" value="&lt;p class=&quot;p1&quot; style=&quot;margin: 0px ; font-stretch: normal ; font-size: 14px ; line-height: normal ; font-family: &amp;#34;helvetica neue&amp;#34; ; color: rgb(15 , 23 , 33)&quot;&gt;performSyncWorkOnRoot&lt;br&gt;&lt;/p&gt;" style="rounded=0;whiteSpace=wrap;html=1;" parent="1" vertex="1">
          <mxGeometry x="422.5" y="120" width="230" height="60" as="geometry" />
        </mxCell>
        <mxCell id="JCvSuk_qTI3pTjTJBhhC-11" style="edgeStyle=orthogonalEdgeStyle;rounded=0;orthogonalLoop=1;jettySize=auto;html=1;exitX=1;exitY=0.5;exitDx=0;exitDy=0;entryX=0.25;entryY=0;entryDx=0;entryDy=0;" parent="1" source="JCvSuk_qTI3pTjTJBhhC-5" target="JCvSuk_qTI3pTjTJBhhC-10" edge="1">
          <mxGeometry relative="1" as="geometry" />
        </mxCell>
        <mxCell id="JCvSuk_qTI3pTjTJBhhC-5" value="&lt;p class=&quot;p1&quot; style=&quot;margin: 0px ; font-stretch: normal ; font-size: 14px ; line-height: normal ; font-family: &amp;#34;helvetica neue&amp;#34; ; color: rgb(15 , 23 , 33)&quot;&gt;workLoopSync&lt;/p&gt;" style="rounded=0;whiteSpace=wrap;html=1;" parent="1" vertex="1">
          <mxGeometry x="477.5" y="220" width="120" height="60" as="geometry" />
        </mxCell>
        <mxCell id="JCvSuk_qTI3pTjTJBhhC-12" style="edgeStyle=orthogonalEdgeStyle;rounded=0;orthogonalLoop=1;jettySize=auto;html=1;exitX=0;exitY=0.5;exitDx=0;exitDy=0;entryX=0.75;entryY=0;entryDx=0;entryDy=0;" parent="1" source="JCvSuk_qTI3pTjTJBhhC-6" target="JCvSuk_qTI3pTjTJBhhC-10" edge="1">
          <mxGeometry relative="1" as="geometry" />
        </mxCell>
        <mxCell id="JCvSuk_qTI3pTjTJBhhC-6" value="&lt;p class=&quot;p1&quot; style=&quot;margin: 0px ; font-stretch: normal ; font-size: 14px ; line-height: normal ; font-family: &amp;#34;helvetica neue&amp;#34; ; color: rgb(15 , 23 , 33)&quot;&gt;&lt;span&gt;workLoopConcurrent&lt;/span&gt;&lt;br&gt;&lt;/p&gt;" style="rounded=0;whiteSpace=wrap;html=1;" parent="1" vertex="1">
          <mxGeometry x="769" y="220" width="157" height="60" as="geometry" />
        </mxCell>
        <mxCell id="JCvSuk_qTI3pTjTJBhhC-17" style="edgeStyle=orthogonalEdgeStyle;rounded=0;orthogonalLoop=1;jettySize=auto;html=1;exitX=0;exitY=0.5;exitDx=0;exitDy=0;entryX=1;entryY=0.5;entryDx=0;entryDy=0;" parent="1" source="JCvSuk_qTI3pTjTJBhhC-10" target="JCvSuk_qTI3pTjTJBhhC-13" edge="1">
          <mxGeometry relative="1" as="geometry">
            <Array as="points" />
          </mxGeometry>
        </mxCell>
        <mxCell id="Zc9hSf9M4Ta3_khyN9CD-2" style="edgeStyle=orthogonalEdgeStyle;rounded=0;orthogonalLoop=1;jettySize=auto;html=1;exitX=1;exitY=0.5;exitDx=0;exitDy=0;entryX=0;entryY=0.5;entryDx=0;entryDy=0;" edge="1" parent="1" source="JCvSuk_qTI3pTjTJBhhC-10" target="Zc9hSf9M4Ta3_khyN9CD-1">
          <mxGeometry relative="1" as="geometry" />
        </mxCell>
        <mxCell id="JCvSuk_qTI3pTjTJBhhC-10" value="&lt;p class=&quot;p1&quot; style=&quot;margin: 0px ; font-stretch: normal ; font-size: 14px ; line-height: normal ; font-family: &amp;#34;helvetica neue&amp;#34; ; color: rgb(15 , 23 , 33)&quot;&gt;performUnitOfWork&lt;/p&gt;" style="rounded=0;whiteSpace=wrap;html=1;" parent="1" vertex="1">
          <mxGeometry x="597.5" y="310" width="165" height="60" as="geometry" />
        </mxCell>
        <mxCell id="JCvSuk_qTI3pTjTJBhhC-16" style="edgeStyle=orthogonalEdgeStyle;rounded=0;orthogonalLoop=1;jettySize=auto;html=1;exitX=0.5;exitY=1;exitDx=0;exitDy=0;entryX=0.5;entryY=0;entryDx=0;entryDy=0;" parent="1" source="JCvSuk_qTI3pTjTJBhhC-13" target="JCvSuk_qTI3pTjTJBhhC-15" edge="1">
          <mxGeometry relative="1" as="geometry" />
        </mxCell>
        <mxCell id="JCvSuk_qTI3pTjTJBhhC-13" value="&lt;font style=&quot;font-size: 14px&quot;&gt;beginWork&lt;/font&gt;" style="rounded=0;whiteSpace=wrap;html=1;fillColor=#fff2cc;strokeColor=#d6b656;" parent="1" vertex="1">
          <mxGeometry x="357.5" y="310" width="120" height="60" as="geometry" />
        </mxCell>
        <mxCell id="Zc9hSf9M4Ta3_khyN9CD-6" style="edgeStyle=orthogonalEdgeStyle;rounded=0;orthogonalLoop=1;jettySize=auto;html=1;exitX=0.5;exitY=1;exitDx=0;exitDy=0;entryX=0.5;entryY=0;entryDx=0;entryDy=0;" edge="1" parent="1" source="JCvSuk_qTI3pTjTJBhhC-14" target="Zc9hSf9M4Ta3_khyN9CD-5">
          <mxGeometry relative="1" as="geometry" />
        </mxCell>
        <mxCell id="JCvSuk_qTI3pTjTJBhhC-14" value="&lt;font style=&quot;font-size: 14px&quot;&gt;completeWork&lt;/font&gt;" style="rounded=0;whiteSpace=wrap;html=1;fillColor=#fff2cc;strokeColor=#d6b656;" parent="1" vertex="1">
          <mxGeometry x="1092.5" y="310" width="120" height="60" as="geometry" />
        </mxCell>
        <mxCell id="JCvSuk_qTI3pTjTJBhhC-19" style="edgeStyle=orthogonalEdgeStyle;rounded=0;orthogonalLoop=1;jettySize=auto;html=1;exitX=1;exitY=0.5;exitDx=0;exitDy=0;entryX=0.5;entryY=0;entryDx=0;entryDy=0;" parent="1" source="JCvSuk_qTI3pTjTJBhhC-15" target="JCvSuk_qTI3pTjTJBhhC-18" edge="1">
          <mxGeometry relative="1" as="geometry" />
        </mxCell>
        <mxCell id="JCvSuk_qTI3pTjTJBhhC-23" value="mount" style="edgeLabel;html=1;align=center;verticalAlign=middle;resizable=0;points=[];fontSize=14;" parent="JCvSuk_qTI3pTjTJBhhC-19" vertex="1" connectable="0">
          <mxGeometry x="-0.5417" y="1" relative="1" as="geometry">
            <mxPoint x="5" y="11" as="offset" />
          </mxGeometry>
        </mxCell>
        <mxCell id="JCvSuk_qTI3pTjTJBhhC-24" value="false" style="edgeLabel;html=1;align=center;verticalAlign=middle;resizable=0;points=[];fontSize=14;" parent="JCvSuk_qTI3pTjTJBhhC-19" vertex="1" connectable="0">
          <mxGeometry x="-0.55" relative="1" as="geometry">
            <mxPoint x="6" y="-10" as="offset" />
          </mxGeometry>
        </mxCell>
        <mxCell id="JCvSuk_qTI3pTjTJBhhC-22" style="edgeStyle=orthogonalEdgeStyle;rounded=0;orthogonalLoop=1;jettySize=auto;html=1;exitX=0;exitY=0.5;exitDx=0;exitDy=0;entryX=0.5;entryY=0;entryDx=0;entryDy=0;" parent="1" source="JCvSuk_qTI3pTjTJBhhC-15" target="JCvSuk_qTI3pTjTJBhhC-21" edge="1">
          <mxGeometry relative="1" as="geometry" />
        </mxCell>
        <mxCell id="JCvSuk_qTI3pTjTJBhhC-25" value="true" style="edgeLabel;html=1;align=center;verticalAlign=middle;resizable=0;points=[];fontSize=14;" parent="JCvSuk_qTI3pTjTJBhhC-22" vertex="1" connectable="0">
          <mxGeometry x="-0.3306" y="-3" relative="1" as="geometry">
            <mxPoint y="-7" as="offset" />
          </mxGeometry>
        </mxCell>
        <mxCell id="JCvSuk_qTI3pTjTJBhhC-15" value="&lt;font style=&quot;font-size: 14px&quot;&gt;current !== null&lt;/font&gt;" style="rhombus;whiteSpace=wrap;html=1;" parent="1" vertex="1">
          <mxGeometry x="342.5" y="430" width="150" height="80" as="geometry" />
        </mxCell>
        <mxCell id="JCvSuk_qTI3pTjTJBhhC-44" style="edgeStyle=orthogonalEdgeStyle;rounded=0;orthogonalLoop=1;jettySize=auto;html=1;exitX=0.25;exitY=1;exitDx=0;exitDy=0;entryX=0.854;entryY=0;entryDx=0;entryDy=0;entryPerimeter=0;fontSize=14;" parent="1" source="JCvSuk_qTI3pTjTJBhhC-18" target="JCvSuk_qTI3pTjTJBhhC-41" edge="1">
          <mxGeometry relative="1" as="geometry" />
        </mxCell>
        <mxCell id="JCvSuk_qTI3pTjTJBhhC-62" style="edgeStyle=orthogonalEdgeStyle;rounded=0;orthogonalLoop=1;jettySize=auto;html=1;exitX=0.75;exitY=1;exitDx=0;exitDy=0;fontSize=14;" parent="1" source="JCvSuk_qTI3pTjTJBhhC-18" edge="1">
          <mxGeometry relative="1" as="geometry">
            <mxPoint x="706.5" y="710" as="targetPoint" />
          </mxGeometry>
        </mxCell>
        <mxCell id="JCvSuk_qTI3pTjTJBhhC-18" value="&lt;font style=&quot;font-size: 14px&quot;&gt;根据tag进入不同的Fiber 创建函数&lt;/font&gt;" style="rounded=0;whiteSpace=wrap;html=1;" parent="1" vertex="1">
          <mxGeometry x="597.5" y="555" width="145" height="70" as="geometry" />
        </mxCell>
        <mxCell id="JCvSuk_qTI3pTjTJBhhC-27" style="edgeStyle=orthogonalEdgeStyle;rounded=0;orthogonalLoop=1;jettySize=auto;html=1;exitX=0.5;exitY=1;exitDx=0;exitDy=0;fontSize=14;" parent="1" source="JCvSuk_qTI3pTjTJBhhC-21" edge="1">
          <mxGeometry relative="1" as="geometry">
            <mxPoint x="177.5" y="710" as="targetPoint" />
          </mxGeometry>
        </mxCell>
        <mxCell id="JCvSuk_qTI3pTjTJBhhC-28" value="能" style="edgeLabel;html=1;align=center;verticalAlign=middle;resizable=0;points=[];fontSize=14;" parent="JCvSuk_qTI3pTjTJBhhC-27" vertex="1" connectable="0">
          <mxGeometry x="-0.25" y="-1" relative="1" as="geometry">
            <mxPoint as="offset" />
          </mxGeometry>
        </mxCell>
        <mxCell id="JCvSuk_qTI3pTjTJBhhC-39" style="edgeStyle=orthogonalEdgeStyle;rounded=0;orthogonalLoop=1;jettySize=auto;html=1;exitX=1;exitY=0.5;exitDx=0;exitDy=0;entryX=0;entryY=0.5;entryDx=0;entryDy=0;fontSize=14;" parent="1" source="JCvSuk_qTI3pTjTJBhhC-21" target="JCvSuk_qTI3pTjTJBhhC-18" edge="1">
          <mxGeometry relative="1" as="geometry" />
        </mxCell>
        <mxCell id="JCvSuk_qTI3pTjTJBhhC-40" value="否" style="edgeLabel;html=1;align=center;verticalAlign=middle;resizable=0;points=[];fontSize=14;" parent="JCvSuk_qTI3pTjTJBhhC-39" vertex="1" connectable="0">
          <mxGeometry x="-0.0203" y="1" relative="1" as="geometry">
            <mxPoint x="-4" y="-9" as="offset" />
          </mxGeometry>
        </mxCell>
        <mxCell id="JCvSuk_qTI3pTjTJBhhC-21" value="&lt;span style=&quot;font-size: 14px&quot;&gt;能否复用&lt;/span&gt;" style="rhombus;whiteSpace=wrap;html=1;" parent="1" vertex="1">
          <mxGeometry x="102.5" y="550" width="150" height="80" as="geometry" />
        </mxCell>
        <mxCell id="JCvSuk_qTI3pTjTJBhhC-26" value="update" style="text;html=1;align=center;verticalAlign=middle;resizable=0;points=[];autosize=1;strokeColor=none;fontSize=14;" parent="1" vertex="1">
          <mxGeometry x="232.5" y="470" width="60" height="20" as="geometry" />
        </mxCell>
        <mxCell id="JCvSuk_qTI3pTjTJBhhC-32" style="edgeStyle=orthogonalEdgeStyle;rounded=0;orthogonalLoop=1;jettySize=auto;html=1;exitX=0.5;exitY=1;exitDx=0;exitDy=0;fontSize=14;" parent="1" source="JCvSuk_qTI3pTjTJBhhC-29" target="JCvSuk_qTI3pTjTJBhhC-31" edge="1">
          <mxGeometry relative="1" as="geometry" />
        </mxCell>
        <mxCell id="JCvSuk_qTI3pTjTJBhhC-29" value="bailoutOnAlreadyFinishedWork" style="rounded=0;whiteSpace=wrap;html=1;fontSize=14;fillColor=#f8cecc;strokeColor=#b85450;" parent="1" vertex="1">
          <mxGeometry x="70" y="710" width="215" height="60" as="geometry" />
        </mxCell>
        <mxCell id="JCvSuk_qTI3pTjTJBhhC-34" value="是" style="edgeStyle=orthogonalEdgeStyle;rounded=0;orthogonalLoop=1;jettySize=auto;html=1;exitX=0.5;exitY=1;exitDx=0;exitDy=0;entryX=0.5;entryY=0;entryDx=0;entryDy=0;fontSize=14;" parent="1" source="JCvSuk_qTI3pTjTJBhhC-31" target="JCvSuk_qTI3pTjTJBhhC-33" edge="1">
          <mxGeometry relative="1" as="geometry" />
        </mxCell>
        <mxCell id="JCvSuk_qTI3pTjTJBhhC-35" style="edgeStyle=orthogonalEdgeStyle;rounded=0;orthogonalLoop=1;jettySize=auto;html=1;exitX=1;exitY=0.5;exitDx=0;exitDy=0;fontSize=14;" parent="1" source="JCvSuk_qTI3pTjTJBhhC-31" edge="1">
          <mxGeometry relative="1" as="geometry">
            <mxPoint x="322.5" y="850" as="targetPoint" />
            <Array as="points">
              <mxPoint x="312.5" y="850" />
              <mxPoint x="312.5" y="850" />
            </Array>
          </mxGeometry>
        </mxCell>
        <mxCell id="JCvSuk_qTI3pTjTJBhhC-37" value="否" style="edgeLabel;html=1;align=center;verticalAlign=middle;resizable=0;points=[];fontSize=14;" parent="JCvSuk_qTI3pTjTJBhhC-35" vertex="1" connectable="0">
          <mxGeometry x="-0.1714" relative="1" as="geometry">
            <mxPoint x="4" y="-10" as="offset" />
          </mxGeometry>
        </mxCell>
        <mxCell id="JCvSuk_qTI3pTjTJBhhC-31" value="&lt;span style=&quot;font-size: 14px&quot;&gt;节点是否需要更新&lt;/span&gt;" style="rhombus;whiteSpace=wrap;html=1;" parent="1" vertex="1">
          <mxGeometry x="102.5" y="810" width="150" height="80" as="geometry" />
        </mxCell>
        <mxCell id="JCvSuk_qTI3pTjTJBhhC-33" value="cloneChildFibers" style="rounded=0;whiteSpace=wrap;html=1;fontSize=14;" parent="1" vertex="1">
          <mxGeometry x="117.5" y="950" width="120" height="60" as="geometry" />
        </mxCell>
        <mxCell id="JCvSuk_qTI3pTjTJBhhC-36" value="return null" style="rounded=0;whiteSpace=wrap;html=1;fontSize=14;" parent="1" vertex="1">
          <mxGeometry x="322.5" y="820" width="120" height="60" as="geometry" />
        </mxCell>
        <mxCell id="JCvSuk_qTI3pTjTJBhhC-52" style="edgeStyle=orthogonalEdgeStyle;rounded=0;orthogonalLoop=1;jettySize=auto;html=1;exitX=0.75;exitY=1;exitDx=0;exitDy=0;entryX=0.25;entryY=0;entryDx=0;entryDy=0;fontSize=14;" parent="1" source="JCvSuk_qTI3pTjTJBhhC-41" target="JCvSuk_qTI3pTjTJBhhC-50" edge="1">
          <mxGeometry relative="1" as="geometry" />
        </mxCell>
        <mxCell id="JCvSuk_qTI3pTjTJBhhC-41" value="mountChildFibers" style="rounded=0;whiteSpace=wrap;html=1;fontSize=14;fillColor=#f8cecc;strokeColor=#b85450;" parent="1" vertex="1">
          <mxGeometry x="522.5" y="710" width="130" height="60" as="geometry" />
        </mxCell>
        <mxCell id="JCvSuk_qTI3pTjTJBhhC-61" style="edgeStyle=orthogonalEdgeStyle;rounded=0;orthogonalLoop=1;jettySize=auto;html=1;exitX=0.25;exitY=1;exitDx=0;exitDy=0;fontSize=14;" parent="1" source="JCvSuk_qTI3pTjTJBhhC-43" edge="1">
          <mxGeometry relative="1" as="geometry">
            <mxPoint x="717.5" y="820" as="targetPoint" />
          </mxGeometry>
        </mxCell>
        <mxCell id="JCvSuk_qTI3pTjTJBhhC-43" value="reconcileChildFibers" style="rounded=0;whiteSpace=wrap;html=1;fontSize=14;fillColor=#f8cecc;strokeColor=#b85450;" parent="1" vertex="1">
          <mxGeometry x="682.5" y="710" width="140" height="60" as="geometry" />
        </mxCell>
        <mxCell id="JCvSuk_qTI3pTjTJBhhC-65" style="edgeStyle=orthogonalEdgeStyle;rounded=0;orthogonalLoop=1;jettySize=auto;html=1;exitX=0.5;exitY=1;exitDx=0;exitDy=0;entryX=0.5;entryY=0;entryDx=0;entryDy=0;fontSize=14;" parent="1" source="JCvSuk_qTI3pTjTJBhhC-50" target="JCvSuk_qTI3pTjTJBhhC-58" edge="1">
          <mxGeometry relative="1" as="geometry" />
        </mxCell>
        <mxCell id="JCvSuk_qTI3pTjTJBhhC-50" value="ChildReconciler" style="rounded=0;whiteSpace=wrap;html=1;fontSize=14;" parent="1" vertex="1">
          <mxGeometry x="572.5" y="820" width="190" height="60" as="geometry" />
        </mxCell>
        <mxCell id="JCvSuk_qTI3pTjTJBhhC-58" value="createFiber" style="rounded=0;whiteSpace=wrap;html=1;fontSize=14;" parent="1" vertex="1">
          <mxGeometry x="572.5" y="950" width="190" height="60" as="geometry" />
        </mxCell>
        <mxCell id="JCvSuk_qTI3pTjTJBhhC-66" value="不带effectTag" style="text;html=1;align=center;verticalAlign=middle;resizable=0;points=[];autosize=1;strokeColor=none;fontSize=14;" parent="1" vertex="1">
          <mxGeometry x="522.5" y="670" width="100" height="20" as="geometry" />
        </mxCell>
        <mxCell id="JCvSuk_qTI3pTjTJBhhC-68" value="携带effectTag" style="text;html=1;align=center;verticalAlign=middle;resizable=0;points=[];autosize=1;strokeColor=none;fontSize=14;" parent="1" vertex="1">
          <mxGeometry x="732.5" y="670" width="100" height="20" as="geometry" />
        </mxCell>
        <mxCell id="Zc9hSf9M4Ta3_khyN9CD-3" style="edgeStyle=orthogonalEdgeStyle;rounded=0;orthogonalLoop=1;jettySize=auto;html=1;exitX=1;exitY=0.5;exitDx=0;exitDy=0;" edge="1" parent="1" source="Zc9hSf9M4Ta3_khyN9CD-1" target="JCvSuk_qTI3pTjTJBhhC-14">
          <mxGeometry relative="1" as="geometry" />
        </mxCell>
        <mxCell id="Zc9hSf9M4Ta3_khyN9CD-1" value="&lt;font style=&quot;font-size: 14px&quot;&gt;completeUnitOfWork&lt;/font&gt;" style="rounded=0;whiteSpace=wrap;html=1;" vertex="1" parent="1">
          <mxGeometry x="852.5" y="310" width="150" height="60" as="geometry" />
        </mxCell>
        <mxCell id="Zc9hSf9M4Ta3_khyN9CD-8" style="edgeStyle=orthogonalEdgeStyle;rounded=0;orthogonalLoop=1;jettySize=auto;html=1;exitX=0.5;exitY=1;exitDx=0;exitDy=0;entryX=0.5;entryY=0;entryDx=0;entryDy=0;" edge="1" parent="1" source="Zc9hSf9M4Ta3_khyN9CD-5" target="Zc9hSf9M4Ta3_khyN9CD-7">
          <mxGeometry relative="1" as="geometry" />
        </mxCell>
        <mxCell id="Zc9hSf9M4Ta3_khyN9CD-5" value="&lt;span style=&quot;font-size: 14px&quot;&gt;根据&lt;/span&gt;&lt;span style=&quot;color: rgb(15 , 23 , 33) ; font-family: &amp;#34;helvetica neue&amp;#34; ; font-size: 14px&quot;&gt;workInProgress.tag 进入不同函数&lt;/span&gt;" style="rounded=0;whiteSpace=wrap;html=1;" vertex="1" parent="1">
          <mxGeometry x="1070" y="440" width="165" height="60" as="geometry" />
        </mxCell>
        <mxCell id="Zc9hSf9M4Ta3_khyN9CD-22" style="edgeStyle=orthogonalEdgeStyle;rounded=0;orthogonalLoop=1;jettySize=auto;html=1;exitX=0;exitY=0.5;exitDx=0;exitDy=0;" edge="1" parent="1" source="Zc9hSf9M4Ta3_khyN9CD-7" target="Zc9hSf9M4Ta3_khyN9CD-12">
          <mxGeometry relative="1" as="geometry" />
        </mxCell>
        <mxCell id="Zc9hSf9M4Ta3_khyN9CD-24" value="update" style="edgeLabel;html=1;align=center;verticalAlign=middle;resizable=0;points=[];fontSize=14;" vertex="1" connectable="0" parent="Zc9hSf9M4Ta3_khyN9CD-22">
          <mxGeometry x="0.3391" y="-3" relative="1" as="geometry">
            <mxPoint x="3" y="3" as="offset" />
          </mxGeometry>
        </mxCell>
        <mxCell id="Zc9hSf9M4Ta3_khyN9CD-23" style="edgeStyle=orthogonalEdgeStyle;rounded=0;orthogonalLoop=1;jettySize=auto;html=1;entryX=0.5;entryY=0;entryDx=0;entryDy=0;" edge="1" parent="1" source="Zc9hSf9M4Ta3_khyN9CD-7" target="Zc9hSf9M4Ta3_khyN9CD-9">
          <mxGeometry relative="1" as="geometry">
            <mxPoint x="1312.5" y="670" as="targetPoint" />
            <Array as="points">
              <mxPoint x="1302.5" y="585" />
            </Array>
          </mxGeometry>
        </mxCell>
        <mxCell id="Zc9hSf9M4Ta3_khyN9CD-25" value="mount" style="edgeLabel;html=1;align=center;verticalAlign=middle;resizable=0;points=[];fontSize=14;" vertex="1" connectable="0" parent="Zc9hSf9M4Ta3_khyN9CD-23">
          <mxGeometry x="0.3765" relative="1" as="geometry">
            <mxPoint y="-2" as="offset" />
          </mxGeometry>
        </mxCell>
        <mxCell id="Zc9hSf9M4Ta3_khyN9CD-7" value="&lt;font style=&quot;font-size: 14px&quot;&gt;current !== null&lt;/font&gt;" style="rhombus;whiteSpace=wrap;html=1;" vertex="1" parent="1">
          <mxGeometry x="1077.5" y="545" width="150" height="80" as="geometry" />
        </mxCell>
        <mxCell id="Zc9hSf9M4Ta3_khyN9CD-13" style="edgeStyle=orthogonalEdgeStyle;rounded=0;orthogonalLoop=1;jettySize=auto;html=1;exitX=0.5;exitY=1;exitDx=0;exitDy=0;entryX=0.5;entryY=0;entryDx=0;entryDy=0;" edge="1" parent="1" source="Zc9hSf9M4Ta3_khyN9CD-9" target="Zc9hSf9M4Ta3_khyN9CD-11">
          <mxGeometry relative="1" as="geometry" />
        </mxCell>
        <mxCell id="Zc9hSf9M4Ta3_khyN9CD-9" value="&lt;span style=&quot;font-size: 14px&quot;&gt;createInstance&lt;/span&gt;" style="rounded=0;whiteSpace=wrap;html=1;fillColor=#f8cecc;strokeColor=#b85450;" vertex="1" parent="1">
          <mxGeometry x="1227.5" y="680" width="150" height="60" as="geometry" />
        </mxCell>
        <mxCell id="Zc9hSf9M4Ta3_khyN9CD-19" style="edgeStyle=orthogonalEdgeStyle;rounded=0;orthogonalLoop=1;jettySize=auto;html=1;exitX=0;exitY=0.5;exitDx=0;exitDy=0;" edge="1" parent="1" source="Zc9hSf9M4Ta3_khyN9CD-10" target="Zc9hSf9M4Ta3_khyN9CD-17">
          <mxGeometry relative="1" as="geometry" />
        </mxCell>
        <mxCell id="Zc9hSf9M4Ta3_khyN9CD-10" value="&lt;p class=&quot;p1&quot; style=&quot;margin: 0px ; font-stretch: normal ; font-size: 14px ; line-height: normal ; font-family: &amp;#34;helvetica neue&amp;#34; ; color: rgb(15 , 23 , 33)&quot;&gt;finalizeInitialChildren&lt;/p&gt;" style="rounded=0;whiteSpace=wrap;html=1;fillColor=#f8cecc;strokeColor=#b85450;" vertex="1" parent="1">
          <mxGeometry x="1227.5" y="870" width="150" height="60" as="geometry" />
        </mxCell>
        <mxCell id="Zc9hSf9M4Ta3_khyN9CD-14" style="edgeStyle=orthogonalEdgeStyle;rounded=0;orthogonalLoop=1;jettySize=auto;html=1;exitX=0.5;exitY=1;exitDx=0;exitDy=0;entryX=0.5;entryY=0;entryDx=0;entryDy=0;" edge="1" parent="1" source="Zc9hSf9M4Ta3_khyN9CD-11" target="Zc9hSf9M4Ta3_khyN9CD-10">
          <mxGeometry relative="1" as="geometry" />
        </mxCell>
        <mxCell id="Zc9hSf9M4Ta3_khyN9CD-11" value="&lt;span style=&quot;font-size: 14px&quot;&gt;appendAllChildren&lt;/span&gt;" style="rounded=0;whiteSpace=wrap;html=1;fillColor=#f8cecc;strokeColor=#b85450;" vertex="1" parent="1">
          <mxGeometry x="1227.5" y="780" width="150" height="60" as="geometry" />
        </mxCell>
        <mxCell id="Zc9hSf9M4Ta3_khyN9CD-18" style="edgeStyle=orthogonalEdgeStyle;rounded=0;orthogonalLoop=1;jettySize=auto;html=1;exitX=0.5;exitY=1;exitDx=0;exitDy=0;" edge="1" parent="1" source="Zc9hSf9M4Ta3_khyN9CD-12" target="Zc9hSf9M4Ta3_khyN9CD-17">
          <mxGeometry relative="1" as="geometry" />
        </mxCell>
        <mxCell id="Zc9hSf9M4Ta3_khyN9CD-12" value="&lt;span style=&quot;font-size: 14px&quot;&gt;updateHostComponent&lt;br&gt;....&lt;br&gt;&lt;/span&gt;" style="rounded=0;whiteSpace=wrap;html=1;fillColor=#f8cecc;strokeColor=#b85450;" vertex="1" parent="1">
          <mxGeometry x="922.5" y="680" width="155" height="60" as="geometry" />
        </mxCell>
        <mxCell id="Zc9hSf9M4Ta3_khyN9CD-21" style="edgeStyle=orthogonalEdgeStyle;rounded=0;orthogonalLoop=1;jettySize=auto;html=1;exitX=0.5;exitY=1;exitDx=0;exitDy=0;entryX=0.5;entryY=0;entryDx=0;entryDy=0;" edge="1" parent="1" source="Zc9hSf9M4Ta3_khyN9CD-17" target="Zc9hSf9M4Ta3_khyN9CD-20">
          <mxGeometry relative="1" as="geometry" />
        </mxCell>
        <mxCell id="Zc9hSf9M4Ta3_khyN9CD-17" value="&lt;span style=&quot;font-size: 14px&quot;&gt;将存在effectTag的节点保存在effectList中，返回下一个workInProgress节点&lt;/span&gt;" style="rounded=0;whiteSpace=wrap;html=1;" vertex="1" parent="1">
          <mxGeometry x="875" y="870" width="250" height="60" as="geometry" />
        </mxCell>
        <mxCell id="Zc9hSf9M4Ta3_khyN9CD-20" value="&lt;span style=&quot;font-size: 14px&quot;&gt;commitRoot&lt;/span&gt;" style="rounded=0;whiteSpace=wrap;html=1;" vertex="1" parent="1">
          <mxGeometry x="922.5" y="980" width="155" height="60" as="geometry" />
        </mxCell>
        <mxCell id="Zc9hSf9M4Ta3_khyN9CD-27" value="为Fiber创建对应dom节点" style="text;html=1;align=left;verticalAlign=middle;resizable=0;points=[];autosize=1;strokeColor=none;fontSize=14;" vertex="1" parent="1">
          <mxGeometry x="1400" y="700" width="170" height="20" as="geometry" />
        </mxCell>
        <mxCell id="Zc9hSf9M4Ta3_khyN9CD-28" value="将后代dom节点插入当前节点" style="text;html=1;align=left;verticalAlign=middle;resizable=0;points=[];autosize=1;strokeColor=none;fontSize=14;" vertex="1" parent="1">
          <mxGeometry x="1400" y="800" width="200" height="20" as="geometry" />
        </mxCell>
        <mxCell id="Zc9hSf9M4Ta3_khyN9CD-29" value="初始化dom属性" style="text;html=1;align=left;verticalAlign=middle;resizable=0;points=[];autosize=1;strokeColor=none;fontSize=14;" vertex="1" parent="1">
          <mxGeometry x="1400" y="890" width="110" height="20" as="geometry" />
        </mxCell>
        <mxCell id="Zc9hSf9M4Ta3_khyN9CD-32" value="diff算法" style="text;html=1;align=center;verticalAlign=middle;resizable=0;points=[];autosize=1;strokeColor=none;fontSize=14;fontColor=#007FFF;" vertex="1" parent="1">
          <mxGeometry x="732.5" y="790" width="60" height="20" as="geometry" />
        </mxCell>
        <mxCell id="Zc9hSf9M4Ta3_khyN9CD-33" value="commit 阶段" style="text;html=1;align=center;verticalAlign=middle;resizable=0;points=[];autosize=1;strokeColor=none;fontSize=14;fontColor=#007FFF;" vertex="1" parent="1">
          <mxGeometry x="1110" y="1000" width="90" height="20" as="geometry" />
        </mxCell>
      </root>
    </mxGraphModel>
  </diagram>
</mxfile>
